# xmcd
#
# Track frame offsets:
#	150
#	15547
#	30694
#	47151
#	61360
#	71293
#	85801
#	103914
#	119756
#	131340
#	145585
#	160274
#	174267
#	190299
#
# Disc length: 2715 seconds
#
# Revision: 1
# Processed by: cddbd v1.5.2PL0 Copyright (c) Steve Scherf et al.
# Submitted via: audiograbber 1.83.01
#
DISCID=bb0a990e
DTITLE=Daniel Moore - the wolf and the chicken
DYEAR=2008
DGENRE=Blues 
TTITLE0=rosalee
TTITLE1=bend with the breeze
TTITLE2=back together once again
TTITLE3=the wolf song
TTITLE4=don't kick a chicken
TTITLE5=one more river to cross
TTITLE6=give a little
TTITLE7=i will not be a prisoner
TTITLE8=walkin' shoes
TTITLE9=spread a little sunshine
TTITLE10=helping hand
TTITLE11=shake that pony down
TTITLE12=somethin' a little funny
TTITLE13=roll me over
EXTD=
EXTT0=
EXTT1=
EXTT2=
EXTT3=
EXTT4=
EXTT5=
EXTT6=
EXTT7=
EXTT8=
EXTT9=
EXTT10=
EXTT11=
EXTT12=
EXTT13=
PLAYORDER=
